<svg width="20" height="20" viewBox="0 0 20 20" fill="none" xmlns="http://www.w3.org/2000/svg">
<g clip-path="url(#clip0_1_51)">
<path d="M19.995 20V19.9991H20V12.6641C20 9.07581 19.2275 6.31165 15.0325 6.31165C13.0158 6.31165 11.6625 7.41831 11.11 8.46748H11.0517V6.64665H7.07416V19.9991H11.2158V13.3875C11.2158 11.6466 11.5458 9.96331 13.7017 9.96331C15.8258 9.96331 15.8575 11.95 15.8575 13.4991V20H19.995Z" fill="#3734A9"/>
<path d="M0.330139 6.64771H4.47681V20.0002H0.330139V6.64771Z" fill="#3734A9"/>
<path d="M2.40167 0C1.07583 0 0 1.07583 0 2.40167C0 3.7275 1.07583 4.82583 2.40167 4.82583C3.7275 4.82583 4.80333 3.7275 4.80333 2.40167C4.8025 1.07583 3.72667 0 2.40167 0V0Z" fill="#3734A9"/>
</g>
<defs>
<clipPath id="clip0_1_51">
<rect width="20" height="20" fill="white"/>
</clipPath>
</defs>
</svg>
