<svg width="138" height="26" viewBox="0 0 138 26" fill="none" xmlns="http://www.w3.org/2000/svg">
<path d="M2.95509 20.4119C1.92638 20.4141 0.976049 19.8627 0.467567 18.9684C-0.0335867 18.0797 -0.00353456 16.987 0.545709 16.1271L5.66835 8.08282C6.20213 7.20265 7.1682 6.67774 8.19711 6.70883C9.22528 6.73347 10.1605 7.30994 10.6445 8.2174C11.122 9.12038 11.0623 10.2068 10.4904 11.0544L5.37098 19.0987C4.84335 19.9209 3.93201 20.4163 2.95509 20.4119Z" fill="#F62B54"/>
<path d="M11.7419 20.4116C10.7087 20.4116 9.75797 19.8591 9.25873 18.9713C8.75868 18.085 8.78874 16.995 9.33687 16.1376L14.4497 8.11177C14.9758 7.21896 15.9447 6.68173 16.9807 6.70847C18.0226 6.73126 18.9668 7.31407 19.4443 8.22573C19.9186 9.13739 19.8491 10.2303 19.2598 11.0757L14.148 19.1016C13.6221 19.9202 12.7149 20.4141 11.7419 20.4116Z" fill="#FFCC00"/>
<path d="M20.332 20.4798C21.7885 20.4798 22.9693 19.3238 22.9693 17.8979C22.9693 16.4719 21.7885 15.3159 20.332 15.3159C18.8755 15.3159 17.6947 16.4719 17.6947 17.8979C17.6947 19.3238 18.8755 20.4798 20.332 20.4798Z" fill="#00CA72"/>
<path d="M134.903 15.4645C135.7 15.4645 136.176 16.031 136.176 16.9589V20.1389H137.258V16.8862C137.258 15.3082 136.515 14.3933 135.117 14.3933C134.57 14.3933 133.702 14.543 133.184 15.5491C132.939 14.9445 132.381 14.5234 131.733 14.453C131.532 14.4163 131.328 14.4042 131.125 14.4172C130.68 14.453 129.888 14.7297 129.591 15.357V14.5137H128.508V20.1389H129.591V17.1033C129.591 15.9225 130.364 15.4645 131.138 15.4645C131.863 15.4645 132.339 16.0191 132.339 16.947V20.1389H133.416V17.1033C133.416 16.1634 133.98 15.4536 134.903 15.4645ZM124.533 19.199C125.028 19.2099 125.505 19.0123 125.852 18.6542C126.199 18.296 126.383 17.8087 126.365 17.3084C126.365 16.1753 125.531 15.4645 124.533 15.4645C123.533 15.4645 122.701 16.1753 122.701 17.3084C122.681 17.8076 122.866 18.2939 123.211 18.6509C123.556 19.0091 124.031 19.2077 124.524 19.199H124.533ZM124.533 20.2539C122.95 20.2539 121.63 19.0851 121.63 17.3019C121.63 15.5187 122.95 14.3868 124.533 14.3868C126.115 14.3868 127.447 15.5187 127.447 17.3019C127.447 19.0851 126.108 20.2594 124.525 20.2594L124.533 20.2539ZM116.057 17.3019L116.046 17.3084C116.046 15.5253 117.401 14.3933 118.995 14.3868C119.804 14.3711 120.582 14.6992 121.136 15.2897L120.315 15.9887C119.963 15.643 119.488 15.4524 118.995 15.459C117.996 15.459 117.128 16.1699 117.128 17.3019C117.128 18.067 117.583 18.7562 118.28 19.0492C118.978 19.3423 119.781 19.1795 120.315 18.639L121.148 19.3379C120.592 19.9345 119.81 20.2674 118.995 20.2539C117.413 20.2539 116.057 19.0851 116.057 17.3019ZM112.591 19.059C112.589 18.8604 112.666 18.669 112.804 18.5269C112.943 18.3849 113.133 18.3038 113.331 18.3015C113.53 18.3038 113.72 18.3849 113.858 18.5269C113.997 18.669 114.074 18.8604 114.072 19.059C114.052 19.4544 113.727 19.7658 113.331 19.7699C112.936 19.7658 112.611 19.4544 112.591 19.059Z" fill="#333333"/>
<path d="M115.552 7.36327H111.698L108.997 14.3277L106.31 7.36327H102.456L107.141 18.3683L104.227 25.6442H108.053L115.552 7.36327ZM92.114 13.4844C92.114 15.2426 93.6508 16.3995 95.1604 16.3995C96.644 16.3995 98.1016 15.3229 98.1016 13.4833C98.1016 11.6437 96.644 10.566 95.1604 10.566C93.6508 10.566 92.114 11.724 92.114 13.4833V13.4844ZM98.1016 19.6294V18.2369C97.3202 19.4199 95.4969 19.8671 94.5613 19.8671C91.4639 19.8671 88.3653 17.4251 88.3653 13.4833C88.3653 9.54256 91.4628 7.10063 94.5613 7.10063C95.3417 7.10063 97.165 7.3611 98.1016 8.72858V7.36761H101.694V19.6316L98.1016 19.6305V19.6294ZM87.343 19.6294H83.7506V18.1056C83.1504 19.2343 81.695 19.892 80.1843 19.892C77.0597 19.892 74.2998 17.3969 74.2998 13.5332C74.2998 9.59683 77.0597 7.09845 80.1843 7.09845C81.6929 7.09845 83.1526 7.72793 83.7506 8.85774V0.682129H87.343V19.6294ZM83.6725 13.4562C83.6725 11.6177 82.3451 10.54 80.8615 10.54C79.3247 10.54 78.0484 11.6958 78.0484 13.4562C78.0484 15.273 79.3247 16.4234 80.8604 16.4234C82.3723 16.4256 83.6725 15.2165 83.6725 13.4562ZM65.4176 13.1393C65.4176 11.2747 66.3814 10.6441 67.6566 10.6441C68.8798 10.6441 69.7654 11.4581 69.7654 13.0861V19.6272H73.3838V12.2992C73.3838 8.80673 71.6647 7.09845 68.9308 7.09845C67.4993 7.09845 66.0677 7.91243 65.4165 9.14751V7.36327H61.8003V19.6272H65.4176V13.1393ZM54.4528 19.8378C51.0167 19.8378 48.1504 17.3166 48.1504 13.4551C48.1504 9.5914 51.0135 7.0952 54.4528 7.0952C57.8921 7.0952 60.7801 9.5914 60.7801 13.4551C60.7801 17.3188 57.8889 19.8389 54.4528 19.8389V19.8378ZM54.4528 16.2671C55.9614 16.2671 57.2127 15.1623 57.2127 13.4562C57.2127 11.8011 55.9625 10.6713 54.4528 10.6713C53.7182 10.6598 53.0111 10.9505 52.4971 11.4755C51.9802 12.0031 51.6994 12.7178 51.7189 13.4562C51.72 15.1644 52.9692 16.2671 54.4528 16.2671ZM41.6636 10.6452C42.7304 10.6452 43.6681 11.4863 43.6681 13.0872V19.6294H47.2605V12.6639C47.2605 8.96084 45.46 7.09628 42.5741 7.09628C41.7167 7.09628 40.1018 7.35676 38.9297 9.27558C38.2524 7.85708 36.9512 7.12125 35.028 7.12125C33.6643 7.11431 32.4225 7.9054 31.8524 9.14426V7.36436H28.2318V19.6283H31.8491V13.1393C31.8491 11.2747 32.865 10.6441 33.9579 10.6441C34.9998 10.6441 35.9353 11.4581 35.9624 13.0079V19.6283H39.5809V13.1393C39.5809 11.3561 40.5186 10.6463 41.6636 10.6463V10.6452Z" fill="#333333"/>
</svg>
