<svg width="138" height="29" viewBox="0 0 138 29" fill="none" xmlns="http://www.w3.org/2000/svg">
<path d="M136.681 9.84768C137.756 10.7176 136.618 12.0936 135.669 11.3977C134.498 10.6544 131.841 10.3064 131.509 11.9512C131.082 14.5451 137.962 13.0584 137.851 17.2655C137.741 21.2829 131.92 21.3778 129.738 19.5747C129.216 19.1478 129.231 18.4518 129.516 18.0247C129.927 17.6136 130.386 17.4712 130.924 17.914C132.221 18.7997 135.558 19.464 135.795 17.2181C135.59 14.8772 129.01 16.2849 129.5 11.7931C129.864 8.72474 134.498 8.17111 136.681 9.84768ZM126.305 10.4645V16.19C126.305 22.1053 116.768 22.1053 116.768 16.19V10.4645C116.768 9.04112 118.84 8.9778 118.84 10.4645V16.19C118.84 19.3058 124.233 19.4957 124.233 16.19V10.4645C124.233 9.05683 126.305 8.94613 126.305 10.4645ZM60.9973 9.02529C63.7651 9.16753 66.6595 11.0813 66.6595 14.8299C66.6595 18.5783 63.7651 20.5238 60.9973 20.5238C58.0712 20.6503 55.0345 18.7048 55.0345 14.8299C55.0345 10.939 58.0712 9.02529 60.9973 9.02529ZM74.9318 9.42059C78.9492 9.42059 79.7716 14.7982 76.4186 16.1425L78.5221 18.7048C79.3445 19.9228 77.6996 21.0931 76.7506 19.8911L74.3624 16.4748H71.8792V19.3375C71.8792 20.7135 69.7756 20.761 69.7756 19.3691V10.3855C69.7756 9.83184 70.2027 9.42059 70.7247 9.42059H74.9318ZM42.1594 9.27835C42.6181 9.27835 42.887 9.54724 43.1559 9.84768L46.6354 14.5451L50.2416 9.67365C50.7635 9.0253 52.0447 9.27835 52.0447 10.3696V19.2743C52.0447 19.9701 51.6018 20.3656 51.0957 20.3656C50.5263 20.3656 50.0834 19.9701 50.0834 19.2743V13.4222L47.4579 16.7437C46.8885 17.4395 46.1768 17.4395 45.6548 16.7437L43.2982 13.4222V19.2743C43.2982 19.9701 42.7288 20.3656 42.1594 20.3656C41.6533 20.3656 41.2104 19.9701 41.2104 19.2743V10.3696C41.2104 9.54725 41.9064 9.27835 42.1594 9.27835ZM86.399 9.27835C88.4552 9.27835 90.3057 10.6544 90.3057 13.2957C90.3057 15.7946 88.4552 17.1865 86.399 17.1865H83.7577V19.2743C83.7577 19.9701 83.3148 20.3656 82.7454 20.3656C82.2235 20.3656 81.6699 19.9701 81.6699 19.2743V10.3696C81.6699 9.84768 82.0812 9.27835 82.7454 9.27835H86.399ZM101.504 9.42058C102.058 9.42058 102.485 9.83184 102.485 10.4013V19.385C102.485 19.9385 102.058 20.3656 101.504 20.3656C100.935 20.3656 100.429 19.9385 100.429 19.385V15.9212H95.2725V19.385C95.2725 19.9385 94.8613 20.3656 94.3077 20.3656C93.596 20.3656 93.1847 19.9385 93.1847 19.385V10.4013C93.1847 9.83185 93.596 9.42058 94.3077 9.42058C94.8613 9.42058 95.2725 9.83184 95.2725 10.4013V13.8493H100.429V10.4013C100.429 9.83185 100.935 9.42058 101.504 9.42058ZM112.513 9.42058C113.968 9.42058 113.936 11.4767 112.513 11.4767H107.958V13.8493H111.943C113.351 13.8493 113.351 15.9212 111.943 15.9212H107.958V18.2936H112.782C114.221 18.2936 114.332 20.3656 112.782 20.3656H106.835C106.281 20.3656 105.854 19.9385 105.854 19.385V10.4013C105.854 9.83185 106.281 9.42058 106.835 9.42058H112.513ZM60.8232 11.0813C59.0518 11.0813 57.1222 12.3309 57.1222 14.8299C57.1222 17.313 59.0518 18.5783 60.8232 18.5783C62.6422 18.5783 64.5876 17.313 64.5876 14.8299C64.5876 12.3309 62.6422 11.0813 60.8232 11.0813ZM86.399 11.2712H83.7577V15.2095H86.399C87.4586 15.2095 88.297 14.2763 88.297 13.2957C88.297 12.1886 87.4587 11.2712 86.399 11.2712ZM74.9318 11.3344H71.8792V14.6558H74.9318C76.9879 14.6558 77.1144 11.3344 74.9318 11.3344Z" fill="#3DB5E6"/>
<path d="M28.6641 17.7239C27.1221 23.9189 21.4802 28.3264 14.8354 28.3264C8.16046 28.3264 2.56718 23.6581 1.08838 17.4375C2.86655 17.4375 4.52889 17.4456 5.30064 17.4456C5.66469 17.4456 5.73539 17.4519 5.75646 17.4504C6.33715 17.4218 7.06527 17.2302 7.54967 16.0522L9.39555 11.2236L13.495 21.0938C13.8636 21.8806 14.4788 21.8248 14.8459 21.8248H14.8805C15.5966 21.8248 15.908 21.5739 16.1803 21.0549L20.8108 11.2976L22.3904 15.695L22.4866 15.9079C22.8206 16.6406 23.0609 17.3642 23.8874 17.4588C24.0577 17.4783 26.0363 17.4437 28.7035 17.4437C28.7035 17.4437 28.7035 17.4608 28.6641 17.7239Z" fill="#3DB5E6"/>
<path d="M29.1168 14.0751C29.1168 14.1489 29.1168 14.3342 29.1153 14.3342H29.1123H24.855L22.3712 7.39596C22.15 6.87996 21.8176 6.1064 20.8487 6.1064C20.256 6.1064 19.7204 6.59592 19.4166 7.40377L14.914 17.8332L10.5798 7.46703C10.1556 6.54636 9.86227 6.11336 9.01379 6.11336C8.43761 6.11336 8.01489 6.3256 7.55455 7.41627L4.98206 14.4373L0.708121 14.4328C0.70511 14.326 0.703613 14.2192 0.703613 14.1124C0.703613 6.30766 7.03103 0 14.8357 0C22.6404 0 29.1168 6.27043 29.1168 14.0751Z" fill="#D8292F"/>
</svg>
