<svg width="138" height="19" viewBox="0 0 138 19" fill="none" xmlns="http://www.w3.org/2000/svg">
<path d="M59.2079 11.8482H68.2703L63.4784 4.13874L54.6836 18.0778H50.6809L61.3784 1.33402C61.8435 0.657499 62.6186 0.248779 63.4784 0.248779C64.3099 0.248779 65.0851 0.643412 65.5361 1.30583L76.2758 18.0778H72.2731L70.3845 14.963H61.2092L59.2079 11.8482ZM100.785 14.963V0.417908H97.3888V16.3865C97.3888 16.8234 97.5579 17.2462 97.8821 17.5704C98.2062 17.8946 98.6431 18.0778 99.1223 18.0778H114.612L116.613 14.963H100.785ZM44.5923 12.3556C47.8904 12.3556 50.5682 9.69182 50.5682 6.3938C50.5682 3.09579 47.8904 0.417908 44.5923 0.417908H29.7329V18.0778H33.1282V3.5327H44.3668C45.9454 3.5327 47.2138 4.81525 47.2138 6.3938C47.2138 7.97233 45.9454 9.2549 44.3668 9.2549L34.7913 9.2408L44.9305 18.0778H49.8635L43.042 12.3556H44.5923ZM8.83143 18.0778C3.95624 18.0778 0 14.1314 0 9.2549C0 4.37834 3.95624 0.417908 8.83143 0.417908H19.0961C23.9726 0.417908 27.926 4.37834 27.926 9.2549C27.926 14.1314 23.9726 18.0778 19.0961 18.0778H8.83143ZM18.8678 14.963C22.0263 14.963 24.5844 12.412 24.5844 9.2549C24.5844 6.09782 22.0263 3.5327 18.8678 3.5327H9.0583C5.90122 3.5327 3.34168 6.09782 3.34168 9.2549C3.34168 12.412 5.90122 14.963 9.0583 14.963H18.8678ZM83.3651 18.0778C78.4885 18.0778 74.5282 14.1314 74.5282 9.2549C74.5282 4.37834 78.4885 0.417908 83.3651 0.417908H95.5565L93.5692 3.5327H83.5906C80.4335 3.5327 77.8685 6.09782 77.8685 9.2549C77.8685 12.412 80.4335 14.963 83.5906 14.963H95.8383L93.837 18.0778H83.3651ZM124.9 14.963C122.293 14.963 120.08 13.2153 119.404 10.8052H133.921L135.922 7.69045H119.404C120.08 5.29446 122.293 3.5327 124.9 3.5327H134.865L136.88 0.417908H124.675C119.798 0.417908 115.838 4.37834 115.838 9.2549C115.838 14.1314 119.798 18.0778 124.675 18.0778H135.147L137.148 14.963H124.9Z" fill="#EA1B22"/>
</svg>
