<svg width="138" height="22" viewBox="0 0 138 22" fill="none" xmlns="http://www.w3.org/2000/svg">
<path d="M130.621 9.88635V12.7458H132.63V15.5829C132.636 15.8002 132.626 16.0321 132.596 16.2317L132.579 16.3286C132.576 16.3502 132.572 16.3724 132.567 16.3952L132.551 16.4649C132.548 16.4768 132.544 16.4888 132.541 16.5009L132.518 16.5745C132.337 17.0969 131.793 17.7589 130.57 17.7589C129.268 17.7589 128.745 16.9989 128.602 16.4649L128.585 16.3952L128.573 16.3286C128.537 16.1098 128.522 15.8364 128.522 15.5829V6.62205C128.522 6.3403 128.538 6.03488 128.589 5.78607L128.624 5.63487C128.626 5.6244 128.629 5.61376 128.632 5.60296L128.651 5.53637C128.654 5.52499 128.658 5.51347 128.662 5.50184L128.687 5.43065C128.873 4.93556 129.364 4.27616 130.56 4.27616C131.482 4.27616 131.979 4.65218 132.245 5.04082L132.292 5.11375C132.307 5.13805 132.321 5.16231 132.334 5.18644L132.371 5.25836L132.404 5.32899L132.432 5.39777L132.456 5.4642L132.477 5.52772L132.494 5.58781L132.508 5.64394L132.52 5.69558C132.525 5.72126 132.529 5.74852 132.534 5.77686L132.545 5.86463C132.547 5.87963 132.549 5.89478 132.55 5.91001L132.562 6.04765L132.57 6.17965L132.577 6.35963L132.579 6.45186V7.53996H137.517L137.518 6.86262L137.521 6.62037L137.52 6.43259L137.516 6.21395L137.512 6.09624L137.503 5.91276L137.49 5.72481L137.479 5.59915C137.145 2.289 134.657 1.01545 131.63 0.793839L131.427 0.780613L131.223 0.770438C131.121 0.766103 131.018 0.762889 130.915 0.760758L130.707 0.75793C130.673 0.757579 130.638 0.757579 130.603 0.757579L130.395 0.758999C130.36 0.759474 130.326 0.760069 130.291 0.760786L130.085 0.766552L129.88 0.775296L129.677 0.78708L129.476 0.801967C129.409 0.807453 129.342 0.813468 129.276 0.82002L129.078 0.841304C129.045 0.845124 129.012 0.849081 128.98 0.853177L128.785 0.879424C128.333 0.944596 127.897 1.03744 127.485 1.16157L127.31 1.21669C125.396 1.84436 124.006 3.17885 123.721 5.59915L123.691 5.86782L123.671 6.07583L123.652 6.29391L123.636 6.51088C123.628 6.65267 123.622 6.78625 123.622 6.89672L123.622 15.2455L123.624 15.3492L123.628 15.5067L123.633 15.6171L123.64 15.735L123.648 15.8632L123.66 16.0045L123.682 16.2469L123.7 16.4328C123.977 19.5088 126.309 20.8772 129.161 21.2L129.361 21.2209C129.696 21.2528 130.037 21.2708 130.382 21.2759L130.589 21.2774L130.798 21.2759C131.145 21.2708 131.488 21.2528 131.823 21.2209L132.024 21.2C134.886 20.8772 137.202 19.5088 137.484 16.4328L137.507 16.1616L137.524 15.9321L137.539 15.6749L137.548 15.4534L137.556 15.1398V9.88635H130.621ZM96.5741 1.28501H91.6155V15.7896C91.6233 16.0424 91.6155 16.3263 91.572 16.5345L91.5574 16.5977L91.5393 16.6648C91.5326 16.6879 91.5253 16.7115 91.5174 16.7355L91.4915 16.8091C91.3044 17.3078 90.8278 17.9585 89.6878 17.9585C88.6187 17.9585 88.1306 17.3712 87.9261 16.8849L87.8961 16.8091C87.8915 16.7966 87.8871 16.7842 87.8829 16.772L87.8595 16.6998L87.8401 16.6308C87.8373 16.6196 87.8345 16.6085 87.8319 16.5977L87.8182 16.5345C87.7686 16.3263 87.7623 16.0424 87.7686 15.7896V1.28501H82.8115V15.3394L82.8106 15.4524L82.8123 15.65L82.8193 15.9407L82.8328 16.294L82.8423 16.4719L82.8488 16.5663L82.855 16.6358C83.098 19.236 84.6235 20.5895 86.7778 21.1558L86.9613 21.2018C87.3622 21.2975 87.7835 21.3672 88.2212 21.4137L88.4245 21.4336L88.6299 21.4502L88.8375 21.4637C88.9418 21.4696 89.0469 21.4744 89.1528 21.4781L89.3654 21.4839L89.5799 21.4868C89.6158 21.4871 89.6517 21.4871 89.6878 21.4871L89.9036 21.4857C89.9394 21.4852 89.9751 21.4846 90.0108 21.4839L90.2238 21.4781C90.3298 21.4744 90.4351 21.4696 90.5396 21.4637L90.7476 21.4502L90.9533 21.4336L91.1568 21.4137C94.057 21.1057 96.2324 19.7854 96.5321 16.6358L96.5361 16.6044L96.5442 16.5219L96.5562 16.3574L96.5669 16.1582L96.5728 16.0143L96.5788 15.7935L96.5806 15.65L96.58 15.5152L96.5768 15.3937C96.5761 15.3748 96.5752 15.3567 96.5741 15.3394V1.28501ZM51.0134 1.28501L48.5398 16.6111L46.0678 1.28501H38.0692L37.645 20.8915H42.5452L42.6779 2.74119L46.0494 20.8915H51.0212L54.3957 2.74119L54.5289 20.8915H59.4415L59.0029 1.28501H51.0134ZM21.3987 1.28501L17.7668 20.8915H23.0631L25.8 2.74119L28.4711 20.8915H33.7306L30.1139 1.28501H21.3987ZM113.904 17.0705L109.286 1.28501H102.011V20.6871H106.824L106.544 4.3965L111.503 20.6871H118.481V1.28501H113.636L113.904 17.0705ZM69.3832 6.38766C69.2961 6.00046 69.3213 5.58908 69.3663 5.37408C69.3791 5.31702 69.3941 5.25949 69.4119 5.20205L69.4407 5.11603C69.6363 4.57248 70.0939 4.06191 71.1432 4.06191C72.2756 4.06191 72.9395 4.76784 72.9395 5.82725V7.02612H77.7733V5.65957C77.7733 2.57568 75.755 1.38938 73.5983 0.97359L73.4208 0.941127L73.2429 0.911996L73.0648 0.886056L72.8868 0.86317L72.7091 0.843197L72.5319 0.826C72.473 0.820714 72.4141 0.815868 72.3555 0.811438L72.1801 0.799372L72.006 0.789664L71.8333 0.782175L71.6622 0.776765L71.4932 0.773296L71.2437 0.771426L71.1337 0.771814L70.915 0.774934C70.8787 0.775717 70.8425 0.776632 70.8064 0.77768L70.5905 0.785576C70.5189 0.788746 70.4476 0.792458 70.3767 0.79672L70.165 0.811165C67.2161 1.03674 64.9148 2.24804 64.4545 5.08859C64.3183 5.95363 64.2846 6.72149 64.5013 7.70134C64.8425 9.31149 66.1839 10.4573 67.7236 11.4183L67.9619 11.5647C68.0019 11.5889 68.0419 11.613 68.0821 11.6369L68.3239 11.7794L68.5672 11.9195L68.8114 12.0576L69.1778 12.2611L70.1408 12.7888L70.3747 12.9185L70.6046 13.0478L70.8299 13.1769L71.0499 13.306C72.0993 13.9305 72.9401 14.5639 73.2427 15.3211C73.4101 15.7709 73.3735 16.338 73.2925 16.6998L73.2787 16.7581C73.2586 16.8451 73.2335 16.9321 73.2019 17.0177L73.168 17.1027C72.9453 17.623 72.4585 18.0665 71.3889 18.0665C70.1689 18.0665 69.4345 17.3651 69.4345 16.308L69.433 14.4263H64.2302V15.922C64.2302 19.4326 66.4575 20.9575 69.2469 21.4103L69.4546 21.4419C69.5936 21.4616 69.734 21.4788 69.8754 21.4936L70.0883 21.5139C70.3375 21.5355 70.5898 21.5498 70.8439 21.5573L71.0622 21.5621C71.0986 21.5626 71.1351 21.563 71.1716 21.5633L71.2812 21.5637C71.3541 21.5637 71.4268 21.5632 71.4993 21.5621L71.7156 21.5574C71.7515 21.5563 71.7874 21.5551 71.8231 21.5538L72.0368 21.5443C72.1077 21.5405 72.1783 21.5363 72.2485 21.5314L72.4582 21.5153C72.5973 21.5034 72.7349 21.4892 72.871 21.4728L73.0741 21.4464L73.2746 21.4165C73.3411 21.4059 73.4071 21.3948 73.4727 21.383L73.6681 21.3459C76.0294 20.8728 77.7863 19.5899 78.1391 17.1234C78.1877 16.7555 78.2176 16.4158 78.2337 16.1052L78.2424 15.9025C78.2435 15.8694 78.2445 15.8368 78.2453 15.8044L78.2486 15.6148V15.434L78.2456 15.2621L78.2399 15.0991L78.232 14.9451C78.2306 14.9202 78.229 14.8957 78.2273 14.8715L78.2166 14.7312L78.2044 14.6001L78.191 14.4782L78.1695 14.3128L78.1472 14.1686L78.1181 14.0097L78.1046 13.9447C77.7641 12.2373 76.2694 11.0314 74.6088 10.0387L74.3705 9.8983L74.1307 9.76062L73.8898 9.62547L73.5281 9.42708L73.0484 9.16967L72.2304 8.73455L71.8937 8.55243C71.8569 8.5323 71.8204 8.5122 71.784 8.49212L71.5686 8.372L71.3593 8.25234C70.3289 7.65495 69.5502 7.06839 69.3832 6.38766ZM5.61949 6.33957C5.53051 5.96902 5.54442 5.57921 5.59007 5.3527L5.60896 5.26789L5.63041 5.18397C5.79371 4.59523 6.24017 3.9884 7.39414 3.9884C8.5409 3.9884 9.21611 4.70113 9.21611 5.76909V6.98257H14.1065V5.60519C14.1065 2.66231 12.2758 1.42639 10.23 0.942931L10.0516 0.902764C9.90256 0.870834 9.75263 0.842709 9.60243 0.818027L9.42211 0.790038L9.24176 0.765215L9.06163 0.743417L8.88194 0.724506C8.82215 0.718668 8.76247 0.713288 8.70295 0.708342L8.52488 0.694786L8.34796 0.683698L8.17244 0.674939L7.99856 0.668369L7.82654 0.663849L7.57253 0.6604H7.48905C7.41573 0.6604 7.3427 0.660913 7.26996 0.661946L7.05266 0.666615C6.90841 0.670781 6.76541 0.677062 6.6238 0.685526L6.41243 0.699867C6.37738 0.702533 6.34242 0.705337 6.30755 0.70828L6.09947 0.727625C6.03048 0.734637 5.96189 0.742215 5.89369 0.750367L5.69032 0.776557C5.52187 0.799833 5.35602 0.826752 5.19301 0.857444L4.99879 0.896094L4.8074 0.938415L4.61893 0.984458C4.5566 1.00043 4.49478 1.01703 4.43348 1.03427L4.25114 1.08791C2.35321 1.67132 0.985467 2.89492 0.640203 5.01809C0.497707 5.89698 0.473287 6.67013 0.679225 7.66081C1.04179 9.37277 2.52051 10.565 4.17484 11.5668L4.41808 11.712C4.4588 11.736 4.49959 11.7599 4.54044 11.7837L4.78621 11.9254L5.1563 12.1339L5.64898 12.4057L6.37568 12.8039L6.7287 13.0004L7.07189 13.1962L7.29413 13.3268C7.33069 13.3485 7.36699 13.3703 7.40304 13.3921L7.61601 13.5231C8.52425 14.092 9.23559 14.6779 9.51017 15.3649C9.69 15.8116 9.64795 16.3785 9.56297 16.7521L9.54844 16.8125C9.52745 16.8985 9.50168 16.9845 9.46981 17.0692L9.43587 17.1534C9.20741 17.6829 8.71711 18.137 7.63356 18.137C6.40875 18.137 5.67613 17.4235 5.67613 16.3518L5.66934 14.4651H0.408081V15.9643C0.408081 20.1726 3.58097 21.5558 7.09482 21.6597L7.31486 21.6645L7.53562 21.6661L7.75392 21.6646C7.86265 21.663 7.97074 21.6603 8.07814 21.6564L8.29198 21.647C8.39843 21.6414 8.50414 21.6347 8.60907 21.6267L8.81787 21.6091L9.02449 21.5881C9.09299 21.5805 9.16111 21.5724 9.22883 21.5637L9.43079 21.5359C9.49771 21.526 9.56421 21.5156 9.63029 21.5046L9.82722 21.4697C12.2725 21.0119 14.0948 19.7148 14.4618 17.1778C14.5123 16.8154 14.5439 16.4801 14.5616 16.1728L14.5713 15.9721L14.5773 15.7798C14.5787 15.7171 14.5795 15.6558 14.5798 15.5959L14.5791 15.4205L14.5757 15.2536L14.5697 15.0954L14.5617 14.9458L14.5518 14.8049L14.5404 14.6728L14.5213 14.4913L14.5007 14.3299L14.4728 14.1463L14.4411 13.9684C14.1018 12.2812 12.6517 11.0809 11.0201 10.0937L10.7802 9.95072C10.74 9.92713 10.6997 9.90367 10.6594 9.88031L10.4168 9.74153L10.1732 9.60532L9.92928 9.47149L9.68569 9.33983L8.61087 8.76931L8.26716 8.5851L8.04396 8.46339L7.82625 8.34235L7.6147 8.22177C7.57999 8.2017 7.54556 8.18165 7.51143 8.1616L7.31031 8.04136C6.42228 7.50043 5.77019 6.95923 5.61949 6.33957Z" fill="#1428A0"/>
</svg>
